<svg width="28" height="28" viewBox="0 0 28 28" fill="none" xmlns="http://www.w3.org/2000/svg">
<path d="M14.0001 27.3334C6.63608 27.3334 0.666748 21.3641 0.666748 14.0001C0.666748 6.63608 6.63608 0.666748 14.0001 0.666748C21.3641 0.666748 27.3334 6.63608 27.3334 14.0001C27.3334 21.3641 21.3641 27.3334 14.0001 27.3334ZM14.0001 24.6667C16.8291 24.6667 19.5422 23.5429 21.5426 21.5426C23.5429 19.5422 24.6667 16.8291 24.6667 14.0001C24.6667 11.1711 23.5429 8.458 21.5426 6.45761C19.5422 4.45722 16.8291 3.33341 14.0001 3.33341C11.1711 3.33341 8.458 4.45722 6.45761 6.45761C4.45722 8.458 3.33341 11.1711 3.33341 14.0001C3.33341 16.8291 4.45722 19.5422 6.45761 21.5426C8.458 23.5429 11.1711 24.6667 14.0001 24.6667V24.6667ZM14.0001 7.40008L20.6001 14.0001L14.0001 20.6001L7.40008 14.0001L14.0001 7.40008V7.40008ZM14.0001 11.1721L11.1721 14.0001L14.0001 16.8281L16.8281 14.0001L14.0001 11.1721V11.1721Z" fill="#4E5969"/>
</svg>
