<svg width="28" height="28" viewBox="0 0 28 28" fill="none" xmlns="http://www.w3.org/2000/svg">
<path d="M13.9998 27.3334C6.63584 27.3334 0.666504 21.3641 0.666504 14.0001C0.666504 6.63608 6.63584 0.666748 13.9998 0.666748C21.3638 0.666748 27.3332 6.63608 27.3332 14.0001C27.3332 21.3641 21.3638 27.3334 13.9998 27.3334ZM13.9998 24.6667C16.8288 24.6667 19.5419 23.5429 21.5423 21.5426C23.5427 19.5422 24.6665 16.8291 24.6665 14.0001C24.6665 11.1711 23.5427 8.458 21.5423 6.45761C19.5419 4.45722 16.8288 3.33341 13.9998 3.33341C11.1709 3.33341 8.45775 4.45722 6.45737 6.45761C4.45698 8.458 3.33317 11.1711 3.33317 14.0001C3.33317 16.8291 4.45698 19.5422 6.45737 21.5426C8.45775 23.5429 11.1709 24.6667 13.9998 24.6667V24.6667ZM8.6665 15.3334H19.3332C19.3332 16.7479 18.7713 18.1045 17.7711 19.1047C16.7709 20.1048 15.4143 20.6667 13.9998 20.6667C12.5853 20.6667 11.2288 20.1048 10.2286 19.1047C9.22841 18.1045 8.6665 16.7479 8.6665 15.3334V15.3334Z" fill="#4E5969"/>
</svg>
