<svg width="161" height="120" viewBox="0 0 161 120" fill="none" xmlns="http://www.w3.org/2000/svg">
<g clip-path="url(#clip0_476_3852)">
<path d="M49.2903 98.9983L8.02365 25.455L121.245 18.2616L156.993 71.9853L49.2903 98.9983Z" stroke="black" stroke-width="0.2"/>
<path d="M14.2992 36.6425L8.02384 25.4685L121.259 18.2616L125.845 25.1879L14.2992 36.6425Z" fill="black" stroke="black" stroke-width="0.2"/>
<path d="M167.048 73.0875L105.304 89.822" stroke="black" stroke-width="0.2" stroke-dasharray="0.4 0.8 4 2"/>
<path d="M49.2444 16.7002L4.17652 18.1721" stroke="black" stroke-width="0.2" stroke-dasharray="0.4 0.8 4 2"/>
<path d="M86.7373 77.7616L67.0693 43.1214L101.226 38.5436L120.605 69.1972L86.7373 77.7616Z" fill="white" stroke="black" stroke-width="0.2"/>
<path d="M82.8554 60.7371L79.4893 55.0994L105.069 51.5653L108.183 56.1091L82.8554 60.7371Z" stroke="black" stroke-width="0.2" stroke-linecap="round" stroke-dasharray="0.4 0.8 4 2"/>
<path d="M21.625 29.3051C22.406 29.756 23.122 31.1667 22.341 31.6176C21.5599 32.0685 20.2936 32.0685 19.5125 31.6176C18.7315 31.1667 18.0002 29.756 18.7813 29.3051C19.5623 28.8542 20.8439 28.8542 21.625 29.3051Z" fill="#E8353E"/>
<path d="M28.1892 28.651C28.9703 29.1019 29.4985 30.331 28.7174 30.7819C27.9364 31.2328 26.67 31.2328 25.889 30.7819C25.1079 30.331 24.5798 29.1019 25.3608 28.651C26.1419 28.2001 27.4082 28.2001 28.1892 28.651Z" fill="#F9D54E"/>
<path d="M34.2296 28.0306C35.0106 28.4815 35.7018 29.5452 34.9208 29.9961C34.1397 30.447 32.8734 30.447 32.0924 29.9961C31.3113 29.5452 30.6201 28.4815 31.4011 28.0306C32.1822 27.5797 33.4485 27.5797 34.2296 28.0306Z" fill="#1EB76D"/>
<path d="M85.8091 57.1511C85.8091 57.7034 85.3614 58.1511 84.8091 58.1511C84.2569 58.1511 83.27 57.7034 83.27 57.1511C83.27 56.5988 83.7177 56.1511 84.27 56.1511C84.8223 56.1511 85.8091 56.5988 85.8091 57.1511Z" fill="#215AE5"/>
<path d="M98.2032 55.1511C98.2032 55.7034 97.7555 56.1511 97.2032 56.1511C96.6509 56.1511 95.664 55.7034 95.664 55.1511C95.664 54.5988 96.1118 54.1511 96.664 54.1511C97.2163 54.1511 98.2032 54.5988 98.2032 55.1511Z" fill="#215AE5"/>
<path d="M89.3992 56.5151C89.3992 57.0674 88.9515 57.5151 88.3992 57.5151C87.8469 57.5151 86.9482 57.0674 86.9482 56.5151C86.9482 55.9629 87.396 55.5151 87.9482 55.5151C88.5005 55.5151 89.3992 55.9629 89.3992 56.5151Z" fill="#215AE5"/>
<path d="M101.793 54.5151C101.793 55.0674 101.345 55.5151 100.793 55.5151C100.241 55.5151 99.3423 55.0674 99.3423 54.5151C99.3423 53.9629 99.79 53.5151 100.342 53.5151C100.895 53.5151 101.793 53.9629 101.793 54.5151Z" fill="#215AE5"/>
<path d="M92.989 55.9062C92.989 56.4585 92.5413 56.9062 91.989 56.9062C91.4367 56.9062 90.5381 56.4585 90.5381 55.9062C90.5381 55.354 90.9858 54.9062 91.5381 54.9062C92.0904 54.9062 92.989 55.354 92.989 55.9062Z" fill="#215AE5"/>
<path d="M105.383 53.9062C105.383 54.4585 104.935 54.9062 104.383 54.9062C103.831 54.9062 102.932 54.4585 102.932 53.9062C102.932 53.354 103.38 52.9062 103.932 52.9062C104.484 52.9062 105.383 53.354 105.383 53.9062Z" fill="#215AE5"/>
<path d="M74.8212 48.9537C74.2817 48.1447 74.6049 47.4206 75.5639 47.2899L79.0291 46.8173C80.1144 46.6693 81.5666 47.3341 82.1603 48.2506L83.9901 51.0753C84.5026 51.8665 84.1894 52.5711 83.2627 52.7118L79.8791 53.2257C78.8042 53.389 77.3438 52.7364 76.7325 51.8197L74.8212 48.9537Z" fill="black" stroke="black" stroke-width="0.2"/>
<path d="M75.2953 48.1223C74.7274 47.2708 75.0676 46.5086 76.0771 46.3709L79.5423 45.8984C80.6848 45.7426 82.2134 46.4423 82.8384 47.4071L84.6681 50.2318C85.2076 51.0646 84.8779 51.8063 83.9025 51.9545L80.5189 52.4684C79.3874 52.6402 77.8501 51.9533 77.2066 50.9884L75.2953 48.1223Z" fill="#215AE5"/>
<g clip-path="url(#clip1_476_3852)">
<path d="M79.7556 47.8335L81.5172 48.0476C81.5321 48.0494 81.5454 48.0542 81.5557 48.0614C81.566 48.0687 81.573 48.0782 81.5761 48.089C81.5791 48.0998 81.5781 48.1116 81.5731 48.1232C81.5681 48.1348 81.5593 48.1458 81.5476 48.1551L80.0767 49.3237L78.2118 49.0969C78.1969 49.0951 78.1837 49.0904 78.1733 49.0831C78.163 49.0759 78.156 49.0664 78.1529 49.0556C78.1499 49.0447 78.1509 49.033 78.1559 49.0214C78.1609 49.0098 78.1697 48.9988 78.1815 48.9895L79.5708 47.8857C79.5954 47.8661 79.6256 47.8509 79.6582 47.8417C79.6908 47.8325 79.7245 47.8296 79.7558 47.8335L79.7556 47.8335Z" fill="#A2BFFA"/>
<path d="M81.4404 48.6007L81.6818 48.63C81.6967 48.6318 81.71 48.6366 81.7203 48.6438C81.7306 48.6511 81.7376 48.6606 81.7407 48.6714C81.7437 48.6822 81.7427 48.694 81.7377 48.7056C81.7327 48.7171 81.7239 48.7281 81.7122 48.7374L80.2413 49.9061L78.3764 49.6793C78.3615 49.6775 78.3482 49.6728 78.3379 49.6655C78.3276 49.6582 78.3206 49.6487 78.3175 49.6379C78.3145 49.6271 78.3155 49.6153 78.3205 49.6037C78.3255 49.5922 78.3343 49.5812 78.346 49.5719L78.5365 49.4206L80.1599 49.618L81.4404 48.6007Z" fill="#D7E4FF"/>
<path d="M81.6067 49.1893L81.8481 49.2186C81.863 49.2204 81.8762 49.2252 81.8865 49.2324C81.8968 49.2397 81.9039 49.2492 81.9069 49.26C81.91 49.2708 81.909 49.2826 81.904 49.2942C81.899 49.3058 81.8902 49.3168 81.8784 49.3261L80.4891 50.4299C80.4645 50.4495 80.4342 50.4647 80.4016 50.4739C80.369 50.4831 80.3353 50.4859 80.3041 50.4821L78.5426 50.2679C78.5277 50.2661 78.5145 50.2614 78.5042 50.2541C78.4939 50.2469 78.4868 50.2374 78.4838 50.2265C78.4807 50.2157 78.4817 50.2039 78.4867 50.1924C78.4917 50.1808 78.5005 50.1698 78.5123 50.1605L78.7027 50.0092L80.3262 50.2067L81.6067 49.1893Z" fill="#FAFCFF"/>
</g>
<path d="M10.4958 81.2285C12.126 97.402 26.283 109.219 42.1163 107.624L36.2129 49.0542C20.3796 50.6501 8.86564 65.055 10.4958 81.2285Z" fill="white"/>
<path d="M42.1163 107.624C26.283 109.219 12.126 97.402 10.4958 81.2285C8.86564 65.055 20.3796 50.6501 36.2129 49.0542" stroke="black" stroke-width="0.2" stroke-linecap="round" stroke-dasharray="4 6 1.2 1.6"/>
<circle cx="43.6968" cy="78.4409" r="27.9" fill="#3954FF" stroke="black" stroke-width="0.2"/>
<g clip-path="url(#clip2_476_3852)">
<path d="M54.3634 73.7743H51.6968H49.0301H38.3634H35.6968H33.0301C32.6765 73.7743 32.3374 73.9148 32.0873 74.1648C31.8373 74.4149 31.6968 74.754 31.6968 75.1076V91.1076C31.6968 91.4612 31.8373 91.8004 32.0873 92.0504C32.3374 92.3005 32.6765 92.441 33.0301 92.441H54.3634C54.7171 92.441 55.0562 92.3005 55.3063 92.0504C55.5563 91.8004 55.6968 91.4612 55.6968 91.1076V75.1076C55.6968 74.754 55.5563 74.4149 55.3063 74.1648C55.0562 73.9148 54.7171 73.7743 54.3634 73.7743Z" fill="#A2BFFA"/>
<path fill-rule="evenodd" clip-rule="evenodd" d="M35.6968 73.7743V72.4409C35.6968 70.3192 36.5396 68.2844 38.0399 66.7841C39.5402 65.2838 41.575 64.4409 43.6968 64.4409C45.8185 64.4409 47.8533 65.2838 49.3536 66.7841C50.8539 68.2844 51.6968 70.3192 51.6968 72.4409V73.7743H49.0301V72.4409C49.0301 71.0264 48.4682 69.6699 47.468 68.6697C46.4678 67.6695 45.1113 67.1076 43.6968 67.1076C42.2823 67.1076 40.9257 67.6695 39.9255 68.6697C38.9253 69.6699 38.3634 71.0264 38.3634 72.4409V73.7743H35.6968ZM42.3634 83.417V86.441H45.0301V83.417C45.5385 83.1235 45.9358 82.6704 46.1605 82.1281C46.3851 81.5857 46.4245 80.9844 46.2726 80.4174C46.1206 79.8504 45.7859 79.3493 45.3201 78.992C44.8544 78.6346 44.2838 78.4409 43.6968 78.4409C43.1098 78.4409 42.5391 78.6346 42.0734 78.992C41.6077 79.3493 41.2729 79.8504 41.121 80.4174C40.969 80.9844 41.0085 81.5857 41.2331 82.1281C41.4577 82.6704 41.8551 83.1235 42.3634 83.417Z" fill="#EDF2FD"/>
</g>
<rect x="80.3027" y="93.8721" width="6.47158" height="14.848" rx="3.23579" transform="rotate(73.2714 80.3027 93.8721)" fill="#3954FF"/>
<rect x="91.4473" y="100.042" width="6.47158" height="14.848" rx="3.23579" transform="rotate(73.2714 91.4473 100.042)" fill="#E8F2FF"/>
<rect x="91.7637" y="109.528" width="6.47158" height="14.848" rx="3.23579" transform="rotate(73.2714 91.7637 109.528)" fill="#EF5533" fill-opacity="0.5"/>
<rect x="101.793" y="97.0515" width="6.47158" height="7.14425" rx="3.23579" transform="rotate(73.2714 101.793 97.0515)" fill="#FFDE86"/>
<rect x="102.404" y="87.0281" width="6.47158" height="18.8053" rx="3.23579" transform="rotate(73.2714 102.404 87.0281)" fill="#60A1FF"/>
<path d="M101.442 59.9192C102.486 59.7002 103.562 60.1011 104.207 60.9493C105.421 62.5437 104.586 64.8595 102.634 65.3124L94.3607 67.2321C93.0911 67.5267 91.7833 66.9229 91.1841 65.7655C90.3173 64.0911 91.2852 62.0516 93.1304 61.6642L101.442 59.9192Z" fill="#215AE5"/>
<path d="M100.607 60.7915C101.612 60.5804 102.65 60.9668 103.272 61.7843C104.442 63.321 103.637 65.5529 101.755 65.9894L93.4821 67.9091C92.257 68.1934 90.9951 67.6108 90.4169 66.4939C89.5806 64.8783 90.5145 62.9103 92.295 62.5365L100.607 60.7915Z" stroke="black" stroke-width="0.2"/>
<path d="M144.353 96.8308L143.405 94.5357C142.757 92.968 142.559 91.2942 142.85 89.8842C143.141 88.4744 143.894 87.4538 144.927 87.0266L149.779 85.0215C150.813 84.5943 152.066 84.786 153.267 85.5791C154.469 86.3723 155.511 87.6972 156.159 89.265L157.107 91.56L144.353 96.8308ZM146.29 83.4517C145.671 83.7074 144.983 83.7816 144.262 83.6675C143.541 83.5534 142.801 83.2531 142.086 82.7807C141.37 82.3084 140.694 81.6742 140.097 80.9135C139.5 80.1527 138.994 79.2812 138.609 78.3487C138.223 77.4162 137.966 76.4418 137.852 75.4815C137.738 74.5211 137.769 73.5947 137.942 72.7552C138.116 71.9156 138.427 71.1807 138.858 70.5907C139.288 70.0011 139.828 69.5674 140.446 69.3117C141.695 68.7958 143.206 69.0284 144.651 69.9827C146.097 70.937 147.349 72.5304 148.128 74.4147C148.907 76.2991 149.144 78.3117 148.794 80.0082C148.444 81.7045 147.538 82.9359 146.29 83.4517Z" fill="white" stroke="black" stroke-width="0.2"/>
<g clip-path="url(#clip3_476_3852)">
<path d="M158.527 89.0475L145.588 94.3946L144.601 92.0071C143.947 90.4241 143.746 88.7299 144.042 87.2972C144.337 85.8645 145.106 84.8106 146.178 84.3674L151.03 82.3623C152.102 81.9191 153.391 82.1229 154.612 82.9289C155.832 83.7349 156.886 85.077 157.54 86.66L158.527 89.0475ZM147.617 80.9774C146.98 81.2407 146.273 81.3162 145.535 81.1995C144.798 81.0828 144.045 80.7763 143.32 80.2974C142.594 79.8185 141.91 79.1766 141.307 78.4084C140.705 77.6402 140.194 76.7607 139.805 75.8201C139.417 74.8795 139.157 73.8963 139.042 72.9265C138.927 71.9568 138.958 71.0195 139.133 70.1682C139.309 69.3169 139.626 68.5683 140.066 67.965C140.506 67.3618 141.06 66.9158 141.697 66.6525C142.984 66.1207 144.53 66.3653 145.995 67.3324C147.46 68.2996 148.724 69.9101 149.509 71.8097C150.294 73.7093 150.536 75.7424 150.181 77.4617C149.826 79.1809 148.904 80.4456 147.617 80.9774Z" fill="#F9D54E"/>
</g>
<path d="M144.353 96.8308L143.405 94.5357C142.757 92.968 142.559 91.2942 142.85 89.8842C143.141 88.4744 143.894 87.4538 144.927 87.0266L149.779 85.0215C150.813 84.5943 152.066 84.786 153.267 85.5791C154.469 86.3723 155.511 87.6972 156.159 89.265L157.107 91.56L144.353 96.8308ZM146.29 83.4517C145.671 83.7074 144.983 83.7816 144.262 83.6675C143.541 83.5534 142.801 83.2531 142.086 82.7807C141.37 82.3084 140.694 81.6742 140.097 80.9135C139.5 80.1527 138.994 79.2812 138.609 78.3487C138.223 77.4162 137.966 76.4418 137.852 75.4815C137.738 74.5211 137.769 73.5947 137.942 72.7552C138.116 71.9156 138.427 71.1807 138.858 70.5907C139.288 70.0011 139.828 69.5674 140.446 69.3117C141.695 68.7958 143.206 69.0284 144.651 69.9827C146.097 70.937 147.349 72.5304 148.128 74.4147C148.907 76.2991 149.144 78.3117 148.794 80.0082C148.444 81.7045 147.538 82.9359 146.29 83.4517Z" stroke="black" stroke-width="0.2"/>
</g>
<defs>
<clipPath id="clip0_476_3852">
<rect width="160" height="120" fill="white" transform="translate(0.5)"/>
</clipPath>
<clipPath id="clip1_476_3852">
<rect width="4.47974" height="3.12318" fill="white" transform="translate(77.4614 48.3043) rotate(-15.7671)"/>
</clipPath>
<clipPath id="clip2_476_3852">
<rect width="32" height="32" fill="white" transform="translate(27.6968 62.4409)"/>
</clipPath>
<clipPath id="clip3_476_3852">
<rect width="21" height="31" fill="white" transform="translate(131.5 69.4691) rotate(-22.4539)"/>
</clipPath>
</defs>
</svg>
