<svg width="62" height="16" viewBox="0 0 62 16" fill="none" xmlns="http://www.w3.org/2000/svg">
<path fill-rule="evenodd" clip-rule="evenodd" d="M20.8503 3.26685H21.8639H22.3966L25.5148 12.8399H23.8283L23.0642 10.3835H19.65L18.8859 12.8399H17.1994L20.3176 3.26685H20.8503ZM21.3571 4.89607L20.1216 8.86761H22.5925L21.3571 4.89607Z" fill="white"/>
<path d="M35.6634 3.99658H34.1473V5.48432H33.06V7.00048H34.1473V12.773H35.6634V7.00048H36.7507V5.48432H35.6634V3.99658Z" fill="white"/>
<path d="M45.3168 12.7728H46.8328V5.6709H45.3168V12.7728Z" fill="white"/>
<path d="M30.6324 9.70173V9.91463C30.6324 10.8029 29.9097 11.5257 29.0214 11.5257C28.1331 11.5257 27.4104 10.8029 27.4104 9.91463V9.70173L27.4185 5.47925H25.9025L25.9106 9.70173V9.91463C25.9106 11.6299 27.3061 13.0254 29.0214 13.0254C30.7366 13.0254 32.1321 11.6299 32.1321 9.91463V9.70173L32.1403 5.47925H30.6242L30.6324 9.70173Z" fill="white"/>
<path fill-rule="evenodd" clip-rule="evenodd" d="M61.9826 5.48961V10.2128H62V12.8496C62 14.5737 60.5764 15.9763 58.8265 15.9763C57.0766 15.9763 55.6531 14.5737 55.6531 12.8496H57.2079C57.2079 13.7289 57.934 14.4444 58.8265 14.4444C59.719 14.4444 60.4452 13.7289 60.4452 12.8496V12.4302H60.4439V11.6531C59.895 12.2327 59.1509 12.5322 58.3373 12.5322C56.6721 12.5322 55.3223 11.2115 55.3223 8.93006C55.3223 6.75783 56.6721 5.32788 58.3373 5.32788C59.1509 5.32788 59.895 5.66827 60.4439 6.26979V5.48961H61.9826ZM57.0332 8.93023C57.0332 10.3862 57.7933 11.2291 58.731 11.2291C59.6687 11.2291 60.4438 10.4306 60.4438 8.93023C60.4438 7.5393 59.6687 6.63139 58.731 6.63139C57.7933 6.63139 57.0332 7.54391 57.0332 8.93023Z" fill="white"/>
<path d="M46.0748 2.93408C45.5264 2.93408 45.0817 3.37873 45.0817 3.92723C45.0817 4.47565 45.5264 4.9203 46.0748 4.9203C46.6233 4.9203 47.0679 4.47565 47.0679 3.92723C47.0679 3.37873 46.6233 2.93408 46.0748 2.93408Z" fill="white"/>
<path d="M52.0214 5.23755H51.6788C50.8696 5.23755 49.656 5.82062 49.656 6.93778V5.81123H48.1399V12.7519H49.656V8.40585C49.656 7.44977 50.4311 6.6747 51.3872 6.6747C52.2444 6.6747 52.9394 7.36964 52.9394 8.22687V12.7729H54.6169V7.83298C54.6169 6.39956 53.4548 5.23755 52.0214 5.23755Z" fill="white"/>
<path d="M41.5416 5.23789H41.199C40.4636 5.23789 39.521 5.5956 39.2661 6.42095V2.74243H37.7499V12.7197H39.2661V7.8585C39.4954 7.17109 40.1429 6.67504 40.9073 6.67504C41.7646 6.67504 42.4596 7.36998 42.4596 8.22722V12.7733H44.1371V7.83333C44.1371 6.3999 42.975 5.23789 41.5416 5.23789Z" fill="white"/>
<path fill-rule="evenodd" clip-rule="evenodd" d="M6.8987 0L13.7891 4.2029C13.7926 4.32739 13.7956 4.45197 13.7956 4.57728C13.7956 9.53518 10.9991 13.8391 6.89781 16C2.79651 13.8391 0 9.53518 0 4.57728C0 4.45197 0.00299507 4.32739 0.00655678 4.2029L6.8987 0ZM1.39499 5.26934C1.39499 9.22446 3.62591 12.6579 6.89766 14.3817C10.1694 12.6579 12.4004 9.22446 12.4004 5.26934C12.4004 5.16937 12.3979 5.06997 12.3952 4.97073L6.89855 1.61787L1.40025 4.97073C1.39742 5.06997 1.39499 5.16937 1.39499 5.26934Z" fill="white"/>
<path d="M8.12856 3.60312L6.90867 5.86853L8.31522 8.4332L6.90802 10.6509L5.50091 8.4332L6.90746 5.86853L5.71323 3.59058L2.65332 5.60602V5.84433C2.65332 8.93144 4.38973 11.6098 6.94332 12.9491C9.49698 11.5985 11.2334 8.9201 11.2334 5.84433C11.2334 5.765 11.2334 5.68551 11.2334 5.60602L8.12856 3.60312Z" fill="white"/>
</svg>
