<svg width="327" height="16" viewBox="0 0 327 16" fill="none" xmlns="http://www.w3.org/2000/svg">
<path d="M1.39876e-06 0L0 16C4.41828 16 8 12.4183 8 8C8 3.58172 4.41828 3.86258e-07 1.39876e-06 0Z" fill="#F2F3F5"/>
<path d="M8 9L8.97188 9L8.97187 7L8 7L8 9ZM12.8594 9L18.6906 8.99999L18.6906 6.99999L12.8594 7L12.8594 9ZM26.4656 8.99998L28.4094 8.99998L28.4094 6.99998L26.4656 6.99998L26.4656 8.99998ZM32.2969 8.99998L38.1281 8.99997L38.1281 6.99997L32.2969 6.99998L32.2969 8.99998ZM45.9031 8.99996L47.8469 8.99996L47.8469 6.99996L45.9031 6.99996L45.9031 8.99996ZM51.7344 8.99996L57.5656 8.99995L57.5656 6.99995L51.7344 6.99996L51.7344 8.99996ZM65.3406 8.99995L67.2844 8.99994L67.2844 6.99994L65.3406 6.99995L65.3406 8.99995ZM71.1719 8.99994L77.0031 8.99994L77.0031 6.99994L71.1719 6.99994L71.1719 8.99994ZM84.7781 8.99993L86.7219 8.99993L86.7219 6.99993L84.7781 6.99993L84.7781 8.99993ZM90.6094 8.99992L96.4406 8.99992L96.4406 6.99992L90.6094 6.99992L90.6094 8.99992ZM104.216 8.99991L106.159 8.99991L106.159 6.99991L104.216 6.99991L104.216 8.99991ZM110.047 8.9999L115.878 8.9999L115.878 6.9999L110.047 6.9999L110.047 8.9999ZM123.653 8.99989L125.597 8.99989L125.597 6.99989L123.653 6.99989L123.653 8.99989ZM129.484 8.99989L135.316 8.99988L135.316 6.99988L129.484 6.99989L129.484 8.99989ZM143.091 8.99987L145.034 8.99987L145.034 6.99987L143.091 6.99987L143.091 8.99987ZM148.922 8.99987L154.753 8.99986L154.753 6.99986L148.922 6.99987L148.922 8.99987ZM162.528 8.99986L164.472 8.99985L164.472 6.99985L162.528 6.99986L162.528 8.99986ZM168.359 8.99985L174.191 8.99985L174.191 6.99985L168.359 6.99985L168.359 8.99985ZM181.966 8.99984L183.909 8.99984L183.909 6.99984L181.966 6.99984L181.966 8.99984ZM187.797 8.99983L193.628 8.99983L193.628 6.99983L187.797 6.99983L187.797 8.99983ZM201.403 8.99982L203.347 8.99982L203.347 6.99982L201.403 6.99982L201.403 8.99982ZM207.234 8.99981L213.066 8.99981L213.066 6.99981L207.234 6.99981L207.234 8.99981ZM220.841 8.9998L222.784 8.9998L222.784 6.9998L220.841 6.9998L220.841 8.9998ZM226.672 8.9998L232.503 8.99979L232.503 6.99979L226.672 6.9998L226.672 8.9998ZM240.278 8.99978L242.222 8.99978L242.222 6.99978L240.278 6.99978L240.278 8.99978ZM246.109 8.99978L251.941 8.99977L251.941 6.99977L246.109 6.99978L246.109 8.99978ZM259.716 8.99977L261.659 8.99976L261.659 6.99976L259.716 6.99977L259.716 8.99977ZM265.547 8.99976L271.378 8.99975L271.378 6.99975L265.547 6.99976L265.547 8.99976ZM279.153 8.99975L281.097 8.99975L281.097 6.99975L279.153 6.99975L279.153 8.99975ZM284.984 8.99974L290.816 8.99974L290.816 6.99974L284.984 6.99974L284.984 8.99974ZM298.591 8.99973L300.534 8.99973L300.534 6.99973L298.591 6.99973L298.591 8.99973ZM304.422 8.99972L310.253 8.99972L310.253 6.99972L304.422 6.99972L304.422 8.99972ZM318.028 8.99971L319 8.99971L319 6.99971L318.028 6.99971L318.028 8.99971Z" fill="#F2F3F5"/>
<path d="M327 16V0C322.582 0 319 3.58172 319 8C319 12.4183 322.582 16 327 16Z" fill="#F2F3F5"/>
</svg>
