<svg width="16" height="16" viewBox="0 0 16 16" fill="none" xmlns="http://www.w3.org/2000/svg">
<g clip-path="url(#clip0_636_1202)">
<rect width="16" height="16" fill="white"/>
<path d="M4.66659 4.66659V1.99992C4.66659 1.82311 4.73682 1.65354 4.86185 1.52851C4.98687 1.40349 5.15644 1.33325 5.33325 1.33325H13.9999C14.1767 1.33325 14.3463 1.40349 14.4713 1.52851C14.5963 1.65354 14.6666 1.82311 14.6666 1.99992V10.6666C14.6666 10.8434 14.5963 11.013 14.4713 11.138C14.3463 11.263 14.1767 11.3333 13.9999 11.3333H11.3333V13.9953C11.3333 14.3659 11.0339 14.6666 10.6619 14.6666H2.00459C1.9164 14.6667 1.82906 14.6494 1.74757 14.6157C1.66608 14.582 1.59204 14.5325 1.52969 14.4702C1.46733 14.4078 1.41788 14.3338 1.38418 14.2523C1.35047 14.1708 1.33316 14.0834 1.33325 13.9953L1.33525 5.33792C1.33525 4.96725 1.63459 4.66659 2.00659 4.66659H4.66659ZM5.99992 4.66659H10.6619C11.0326 4.66659 11.3333 4.96592 11.3333 5.33792V9.99992H13.3333V2.66659H5.99992V4.66659ZM2.66859 5.99992L2.66659 13.3333H9.99992V5.99992H2.66859Z" fill="#4E5969"/>
</g>
<defs>
<clipPath id="clip0_636_1202">
<rect width="16" height="16" fill="white"/>
</clipPath>
</defs>
</svg>
